<svg width="51" height="43" viewBox="0 0 51 43" fill="none" xmlns="http://www.w3.org/2000/svg">
<path fill-rule="evenodd" clip-rule="evenodd" d="M43.75 2.625H26.25V0.875C26.25 0.392 25.858 0 25.375 0C24.892 0 24.5 0.392 24.5 0.875V2.625H7V0.875C7 0.392 6.608 0 6.125 0C5.642 0 5.25 0.392 5.25 0.875V2.625H0.875C0.392 2.625 0 3.017 0 3.5V42C0 42.483 0.392 42.875 0.875 42.875H49.875C50.358 42.875 50.75 42.483 50.75 42V3.5C50.75 3.017 50.358 2.625 49.875 2.625H45.5V0.875C45.5 0.392 45.108 0 44.625 0C44.142 0 43.75 0.392 43.75 0.875V2.625ZM49 10.5V41.125H1.75V10.5H49ZM14 28.875C14 28.392 13.608 28 13.125 28H6.125C5.642 28 5.25 28.392 5.25 28.875V35.875C5.25 36.358 5.642 36.75 6.125 36.75H13.125C13.608 36.75 14 36.358 14 35.875V28.875ZM29.75 28.875C29.75 28.392 29.358 28 28.875 28H21.875C21.392 28 21 28.392 21 28.875V35.875C21 36.358 21.392 36.75 21.875 36.75H28.875C29.358 36.75 29.75 36.358 29.75 35.875V28.875ZM44.212 28H37.625C37.142 28 36.75 28.392 36.75 28.875V35.875C36.75 36.358 37.142 36.75 37.625 36.75H44.625C45.108 36.75 45.5 36.358 45.5 35.875V29.1944C46.1309 28.6598 46.8186 28.2083 47.5449 27.9493C47.999 27.7865 48.2361 27.2851 48.0742 26.8301C47.9115 26.376 47.4101 26.1389 46.9551 26.3007C45.9795 26.6499 45.0494 27.2694 44.212 28ZM12.25 29.75V35H7V29.75H12.25ZM28 29.75V35H22.75V29.75H28ZM42.5136 29.75H38.5V35H43.75V31.0004C42.6046 32.3899 41.8897 33.6744 41.8897 33.6744C41.7567 33.915 41.5188 34.0786 41.2466 34.1163C40.9745 34.1548 40.7006 34.0629 40.5064 33.8686L38.7564 32.1186C38.4151 31.7774 38.4151 31.2226 38.7564 30.8814C39.0976 30.5401 39.6524 30.5401 39.9936 30.8814L40.9605 31.8482C41.3333 31.2804 41.8635 30.5252 42.5136 29.75ZM14 14.875C14 14.392 13.608 14 13.125 14H6.125C5.642 14 5.25 14.392 5.25 14.875V21.875C5.25 22.358 5.642 22.75 6.125 22.75H13.125C13.608 22.75 14 22.358 14 21.875V14.875ZM29.75 14.875C29.75 14.392 29.358 14 28.875 14H21.875C21.392 14 21 14.392 21 14.875V21.875C21 22.358 21.392 22.75 21.875 22.75H28.875C29.358 22.75 29.75 22.358 29.75 21.875V14.875ZM45.5 14.875C45.5 14.392 45.108 14 44.625 14H37.625C37.142 14 36.75 14.392 36.75 14.875V21.875C36.75 22.358 37.142 22.75 37.625 22.75H44.625C45.108 22.75 45.5 22.358 45.5 21.875V14.875ZM12.25 15.75V21H7V15.75H12.25ZM28 15.75V21H22.75V15.75H28ZM43.75 15.75V21H38.5V15.75H43.75ZM1.75 8.75H49V4.375H45.5V6.125C45.5 6.608 45.108 7 44.625 7C44.142 7 43.75 6.608 43.75 6.125V4.375H26.25V6.125C26.25 6.608 25.858 7 25.375 7C24.892 7 24.5 6.608 24.5 6.125V4.375H7V6.125C7 6.608 6.608 7 6.125 7C5.642 7 5.25 6.608 5.25 6.125V4.375H1.75V8.75Z" fill="#134395"/>
</svg>
